PathFileType	4	(X/Y/Z)	C:\Users\Basilio\Documents\Thesis Gigler\squatting_fais\c3dfiles\073\SJ_pre4\markers_experimental.trc
DataRate	CameraRate	NumFrames	NumMarkers	Units	OrigDataRate	OrigDataStartFrame	OrigNumFrames
200.000000	200.000000	4	61	mm	200.000000	0	1299
Frame#	Time	FHD			LBHD			RBHD			C7			T10			CLAV			LSHO			LUUPA			LMUPA			LDUPA			LLEP			LMEP			LRAD			LUL			LRFIN			RSHO			RUPA1			RMUPA			RDUPA			RLEP			RMEP			RRAD			RUL			RUFIN			LASI			RASI			USACR			LSACR			RSACR			LTHI1			LTHI2			LTHI3			LTHI4			LLFC			LMFC			LTIB1			LTIB2			LTIB3			LTIB4			LLMAL			LMMAL			LHEE			LMT1			LMT2			LMT5			RTHI			RTHI2			RTHI3			RTHI4			RLFC			RMFC			RTIB1			RTIB2			RTIB3			RTIB4			RLMAL			RMMAL			RHEE			RMT1			RMT2			RMT5			
		X1	Y1	Z1	X2	Y2	Z2	X3	Y3	Z3	X4	Y4	Z4	X5	Y5	Z5	X6	Y6	Z6	X7	Y7	Z7	X8	Y8	Z8	X9	Y9	Z9	X10	Y10	Z10	X11	Y11	Z11	X12	Y12	Z12	X13	Y13	Z13	X14	Y14	Z14	X15	Y15	Z15	X16	Y16	Z16	X17	Y17	Z17	X18	Y18	Z18	X19	Y19	Z19	X20	Y20	Z20	X21	Y21	Z21	X22	Y22	Z22	X23	Y23	Z23	X24	Y24	Z24	X25	Y25	Z25	X26	Y26	Z26	X27	Y27	Z27	X28	Y28	Z28	X29	Y29	Z29	X30	Y30	Z30	X31	Y31	Z31	X32	Y32	Z32	X33	Y33	Z33	X34	Y34	Z34	X35	Y35	Z35	X36	Y36	Z36	X37	Y37	Z37	X38	Y38	Z38	X39	Y39	Z39	X40	Y40	Z40	X41	Y41	Z41	X42	Y42	Z42	X43	Y43	Z43	X44	Y44	Z44	X45	Y45	Z45	X46	Y46	Z46	X47	Y47	Z47	X48	Y48	Z48	X49	Y49	Z49	X50	Y50	Z50	X51	Y51	Z51	X52	Y52	Z52	X53	Y53	Z53	X54	Y54	Z54	X55	Y55	Z55	X56	Y56	Z56	X57	Y57	Z57	X58	Y58	Z58	X59	Y59	Z59	X60	Y60	Z60	X61	Y61	Z61	

1	0	-126.7832565307617	1544.590209960938	-939.2669067382815	-241.6056518554688	1607.723999023438	-988.950134277344	-292.1145019531251	1621.022827148438	-862.9602050781252	-385.3374938964845	1528.53515625	-926.2816162109377	-474.4415588378907	1185.516235351563	-933.3383789062502	-285.0194702148438	1417.89404296875	-926.9969482421877	-311.0142517089844	1459.141967773438	-1098.916748046875	-392.9092407226564	1371.887573242188	-1218.707763671875	-375.5300292968751	1324.398803710938	-1220.053955078125	-422.6855773925782	1322.148559570313	-1258.450805664063	-457.786102294922	1236.748168945313	-1307.031372070313	-529.1460571289064	1223.387939453125	-1265.634765625	-388.4271240234376	1027.833374023438	-1157.645385742188	-355.7033081054688	1006.42138671875	-1220.512451171875	-349.8585205078126	1004.898681640625	-1112.385131835938	-301.4215087890626	1441.223999023438	-757.1428833007814	-387.8192443847657	1372.168334960938	-617.4979248046876	-375.3585205078126	1324.1728515625	-610.9415283203126	-421.4161376953126	1331.122802734375	-572.3217163085939	-447.4192504882814	1254.277709960938	-524.0311889648439	-526.8583984375001	1246.696411132813	-573.1202392578126	-443.4106750488282	1034.136352539063	-676.9741821289064	-399.9655151367189	1007.599792480469	-619.1698608398439	-382.6988830566407	1017.072265625	-721.5158081054689	-298.6448059082032	1021.063232421875	-1059.314819335938	-307.0753784179688	1013.402709960938	-801.4671630859377	-486.4828186035157	1078.850952148438	-927.7205810546877	-497.677703857422	1050.893676757813	-955.9433593750002	-504.6442871093751	1048.943237304688	-900.8616333007815	-392.348846435547	715.7484741210939	-1148.939819335938	-371.7337036132813	633.9639282226564	-1141.165161132813	-331.5144348144532	628.2932739257814	-1113.546875	-410.4732055664064	588.3991699218751	-1141.705322265625	-420.9256591796876	529.9869995117189	-1151.6455078125	-420.3375854492189	503.2312927246095	-1015.3935546875	-373.9078979492188	329.5984191894532	-1132.904663085938	-434.7146606445314	294.3149719238282	-1184.793579101563	-392.0269470214845	286.0014953613282	-1168.804321289063	-387.0614624023439	204.1169433593751	-1145.43896484375	-446.641082763672	87.5795135498047	-1179.17626953125	-431.9997863769532	103.3121185302735	-1094.5302734375	-501.3288574218751	50.26945114135744	-1140.542114257813	-274.1129760742188	54.79540252685548	-1114.2177734375	-275.0135192871094	54.21562576293947	-1152.192626953125	-310.3403930664063	35.92662048339844	-1207.48095703125	-424.2023315429689	797.0820922851565	-717.0159912109376	-395.9776306152345	737.8150634765626	-705.5744628906251	-362.3433532714844	735.1663818359376	-708.1234741210939	-432.6466369628907	662.6423950195314	-719.9309082031251	-426.8750305175782	512.5893554687501	-714.3120727539064	-413.9652099609376	482.2969665527345	-840.6031494140627	-376.3269958496094	341.9876708984376	-774.744812011719	-403.3417968750001	269.7551879882813	-698.1218872070314	-375.9927368164063	263.5280456542969	-737.3144531250001	-388.2892456054689	213.2965087890626	-764.1480712890626	-438.0287475585939	87.9340057373047	-698.5414428710939	-421.9868774414064	99.95722198486331	-786.0402832031252	-499.3013305664064	44.18742370605469	-752.4176025390626	-269.6224670410157	55.44016647338869	-736.7817993164064	-274.0966491699219	54.75263977050783	-695.9918823242189	-319.9775695800782	34.26572036743165	-650.6843872070314	
2	0.005	-126.5951614379883	1544.421264648438	-939.244812011719	-241.3488311767579	1607.637084960938	-988.7698364257815	-291.8272094726563	1620.885986328125	-862.7999267578127	-385.1263732910157	1528.543579101563	-926.1550292968752	-474.518035888672	1185.604858398438	-933.202087402344	-284.8699951171876	1417.813598632813	-926.933044433594	-310.7963256835938	1459.100463867188	-1098.853759765625	-392.9317626953126	1371.604125976563	-1218.434692382813	-375.5460815429688	1324.068481445313	-1219.715209960938	-422.8025817871095	1321.77685546875	-1258.120483398438	-458.010955810547	1236.43408203125	-1306.557861328125	-529.3073120117189	1223.058715820313	-1264.871215820313	-388.3611145019532	1027.368408203125	-1157.316650390625	-355.7614746093751	1006.054870605469	-1220.21142578125	-350.1337890625001	1005.034851074219	-1112.166625976563	-301.1719360351563	1440.980102539063	-756.9385375976564	-387.7425231933595	1371.870239257813	-617.3928222656251	-375.3403015136719	1323.85400390625	-610.9575805664064	-421.3924865722657	1330.881469726563	-572.3020019531251	-447.6060180664064	1254.103393554688	-524.1008300781251	-526.9926757812501	1246.644165039063	-573.2078857421876	-443.9332275390626	1033.983154296875	-677.2345581054689	-400.7051696777345	1007.300231933594	-619.4217529296876	-383.0839843750001	1016.901489257813	-721.5878906250001	-301.1432189941407	1020.192932128906	-1056.65576171875	-307.3506164550782	1013.368408203125	-801.4226684570315	-486.6469116210939	1078.94287109375	-927.6927490234377	-497.7431030273439	1050.923706054688	-955.9288330078127	-503.725555419922	1048.692138671875	-900.7903442382815	-392.6242065429689	715.7982177734376	-1149.015380859375	-371.9933166503907	633.9684448242189	-1141.162109375	-331.7887573242188	628.2612915039064	-1113.514282226563	-410.6762084960939	588.3822021484376	-1141.690307617188	-421.1140441894532	530.0225830078126	-1151.687622070313	-420.4794921875001	503.1660461425782	-1015.373718261719	-374.0576171875001	329.6267395019532	-1132.891479492188	-434.8445129394532	294.2965698242188	-1184.762939453125	-392.1414489746095	286.0058898925782	-1168.781860351563	-387.1371459960939	204.1163635253907	-1145.426391601563	-446.6635131835939	87.5554656982422	-1179.1865234375	-431.9874877929689	103.3146133422852	-1094.625610351563	-501.3273925781251	50.27537536621095	-1140.52392578125	-274.0924072265626	54.81371688842775	-1114.243896484375	-275.0357666015626	54.20858764648439	-1152.229858398438	-310.3337402343751	35.92244720458985	-1207.490478515625	-424.343719482422	797.0681152343752	-716.9628906250001	-396.1350708007814	737.8460083007814	-705.5617065429689	-362.4989624023438	735.1614990234376	-708.1771240234376	-432.7558898925782	662.6518554687501	-719.8897705078126	-426.9932861328126	512.5960083007814	-714.2852172851564	-414.0781555175782	482.2875976562501	-840.570495605469	-376.3945922851563	342.0036010742188	-774.7604980468752	-403.387420654297	269.7560424804688	-698.1095581054689	-376.0532226562501	263.5700683593751	-737.2800292968751	-388.3762512207032	213.2923583984376	-764.1372070312501	-438.0241699218751	87.92898559570314	-698.5419921875001	-421.6821899414064	100.1497421264649	-786.514099121094	-499.297332763672	44.18262100219727	-752.4195556640626	-269.6201171875001	55.43809509277345	-736.7758789062501	-274.0950622558594	54.75415039062501	-696.0206298828126	-319.9732360839844	34.26463317871094	-650.7286376953126	
3	0.01	-126.2849578857422	1544.263793945313	-939.162292480469	-241.0684051513672	1607.524169921875	-988.644470214844	-291.6558837890626	1620.817016601563	-862.6999511718752	-384.8815002441407	1528.57080078125	-926.0427246093752	-474.666229248047	1185.752197265625	-933.0884399414065	-284.7538146972657	1417.746337890625	-926.8352050781252	-310.6051025390626	1459.038696289063	-1098.794189453125	-392.9201049804689	1371.301879882813	-1218.169677734375	-375.7150268554688	1323.679443359375	-1219.3369140625	-422.9548645019532	1321.337158203125	-1257.71435546875	-458.3074035644532	1236.096069335938	-1306.039794921875	-529.4197387695314	1222.697265625	-1264.134765625	-388.3320922851564	1026.916870117188	-1156.979248046875	-355.8734741210938	1005.73828125	-1219.956665039063	-349.9530944824219	1004.582946777344	-1112.010864257813	-300.8985290527344	1440.788696289063	-756.7447509765626	-387.624725341797	1371.635131835938	-617.2884521484376	-375.3627929687501	1323.588989257813	-610.9518432617189	-421.4331359863282	1330.697265625	-572.2708740234376	-447.7705383300782	1253.87646484375	-524.1690063476564	-527.1398925781251	1246.603637695313	-573.3500976562501	-444.3321533203126	1033.873901367188	-677.3843383789064	-401.304901123047	1007.082946777344	-619.7069091796876	-383.5507812500001	1016.7958984375	-721.6411743164064	-299.1086425781251	1020.85546875	-1059.105346679688	-307.5498352050782	1013.325378417969	-801.392028808594	-486.840789794922	1079.026489257813	-927.6997680664065	-497.9046020507814	1051.009399414063	-955.888122558594	-503.9323730468751	1048.800048828125	-900.796081542969	-392.8356933593751	715.7406005859376	-1148.966918945313	-372.2058410644532	633.9414062500001	-1141.144653320313	-331.9844055175782	628.2487792968751	-1113.497924804688	-410.9811096191407	588.3757324218751	-1141.652954101563	-421.3634033203126	529.9673461914064	-1151.65478515625	-420.6351623535157	503.1689453125001	-1015.389343261719	-374.1547851562501	329.6384582519532	-1132.948608398438	-434.983612060547	294.2991333007813	-1184.786865234375	-392.2689819335939	286.0391845703126	-1168.85107421875	-387.1980895996095	204.1435699462891	-1145.503051757813	-446.6851806640626	87.56582641601564	-1179.218139648438	-432.0110778808595	103.2763137817383	-1094.60107421875	-501.3350219726564	50.28680419921876	-1140.520751953125	-274.0907897949219	54.79455184936525	-1114.321655273438	-275.0429992675782	54.22455978393556	-1152.234985351563	-310.3570861816407	35.8988151550293	-1207.500122070313	-424.4898986816407	797.0601196289065	-716.9039306640626	-396.296356201172	737.8194580078126	-705.5186767578126	-362.6307067871094	735.1885986328126	-708.1585693359376	-432.8813781738282	662.6240844726564	-719.8017578125001	-427.0946044921876	512.5786132812501	-714.2694702148439	-414.2864685058595	482.2608032226564	-840.5310668945315	-376.4575500488282	342.0342712402344	-774.666442871094	-403.4634704589845	269.7579650878907	-698.0406494140626	-376.0955505371094	263.5815734863282	-737.2740478515626	-388.3772277832032	213.3187255859376	-764.1351318359376	-438.0241699218751	87.92898559570314	-698.5419921875001	-421.7508239746095	100.182846069336	-786.529479980469	-499.3319091796876	44.19597625732423	-752.3844604492189	-269.6244201660157	55.44764328002931	-736.7713623046876	-274.1066589355469	54.7571487426758	-696.0115356445314	-319.9763793945313	34.28150939941407	-650.6821899414064	
4	0.015	-126.0990295410157	1544.106323242188	-939.1138305664065	-240.7988433837891	1607.4287109375	-988.5191040039065	-291.3213195800782	1620.659790039063	-862.520935058594	-384.6447753906251	1528.552124023438	-925.9262695312502	-474.8145751953126	1185.854858398438	-932.9882812500002	-284.5346069335938	1417.638305664063	-926.6927490234377	-310.3850708007813	1458.973022460938	-1098.661010742188	-392.8730468750001	1371.040405273438	-1217.923461914063	-375.7132873535157	1323.396484375	-1218.852783203125	-423.0509338378907	1321.0625	-1257.280151367188	-458.6195678710939	1235.770263671875	-1305.442993164063	-529.6319580078126	1222.396606445313	-1263.377685546875	-388.3456420898439	1026.4931640625	-1156.721435546875	-355.9917907714844	1005.416931152344	-1219.767456054688	-350.0255126953126	1004.372619628906	-1111.808715820313	-300.6640319824219	1440.64111328125	-756.6047973632814	-387.5594787597657	1371.463012695313	-617.2662353515626	-375.3858947753907	1323.301391601563	-610.9824218750001	-421.4206542968751	1330.548828125	-572.2415161132814	-447.909637451172	1253.717529296875	-524.2418212890626	-527.3358154296876	1246.628295898438	-573.4557495117189	-444.7016601562501	1033.77978515625	-677.5455322265626	-401.9486389160157	1006.84033203125	-619.8120117187501	-383.8823852539063	1016.709350585938	-721.6860961914064	-299.2514038085938	1020.812561035156	-1059.049438476563	-307.7828979492188	1013.29150390625	-801.247497558594	-487.0539855957032	1079.091186523438	-927.6328125000002	-498.0735473632814	1051.090698242188	-955.8975830078127	-504.0838928222657	1048.82958984375	-900.8015136718752	-393.0643005371095	715.7099609375001	-1148.8828125	-372.3614196777344	633.9431152343751	-1141.10986328125	-332.1967773437501	628.2297363281251	-1113.474731445313	-411.1926574707032	588.3186035156251	-1141.674682617188	-421.5569458007814	529.9935302734376	-1151.639770507813	-420.7919311523439	503.0979309082032	-1015.394226074219	-374.2606506347657	329.6828308105469	-1132.935546875	-435.0869445800782	294.2629699707032	-1184.786376953125	-392.3668518066407	286.0523071289063	-1168.824829101563	-387.2593688964845	204.1616668701172	-1145.52490234375	-446.6600036621095	87.53388977050783	-1179.209594726563	-432.0104980468751	103.3068161010742	-1094.624389648438	-501.3263549804689	50.27235794067384	-1140.515380859375	-274.1076965332032	54.81032562255861	-1114.326049804688	-275.0092773437501	54.22714233398439	-1152.250122070313	-310.3998718261719	35.87889862060548	-1207.498779296875	-424.6252746582032	797.042175292969	-716.8586425781251	-396.417449951172	737.8428344726564	-705.5264282226564	-362.7673950195313	735.2127075195314	-708.1035156250001	-432.9725341796876	662.6009521484376	-719.7540893554689	-427.1569824218751	512.5379028320314	-714.2379150390626	-414.3374023437501	482.2734375000001	-840.502380371094	-376.5018920898438	342.0384521484376	-774.6853637695315	-403.5032653808595	269.7720031738282	-698.0698242187501	-376.1454162597657	263.5805053710938	-737.2578125000001	-388.4476318359376	213.3458251953126	-764.1170654296876	-438.0463867187501	87.9380340576172	-698.5079345703126	-422.0331420898439	99.99732208251956	-786.0034790039065	-499.2913208007814	44.19336700439454	-752.4140625000001	-269.6351928710938	55.44008636474611	-736.7785644531251	-274.0926513671876	54.7482032775879	-696.0275268554689	-319.9767761230469	34.2873649597168	-650.6972656250001	
